<svg xmlns="http://www.w3.org/2000/svg" viewBox="0 0 1000 360" role="img" aria-label="Explore the City">
  <defs>
    <linearGradient id="bg" x1="0" y1="0" x2="1" y2="1"><stop offset="0" stop-color="#070913"/><stop offset=".45" stop-color="#12183b"/><stop offset="1" stop-color="#060712"/></linearGradient>
    <radialGradient id="neb" cx="76%" cy="16%" r="70%"><stop offset="0" stop-color="#6f4bd1" stop-opacity=".9"/><stop offset=".34" stop-color="#1a2554" stop-opacity=".65"/><stop offset="1" stop-color="#000" stop-opacity="0"/></radialGradient>
    <linearGradient id="gold" x1="0" y1="0" x2="1" y2="1"><stop offset="0" stop-color="#fff0b5"/><stop offset=".45" stop-color="#d7a94b"/><stop offset="1" stop-color="#5d3e16"/></linearGradient>
    <linearGradient id="stone" x1="0" y1="0" x2="0" y2="1"><stop offset="0" stop-color="#5b5b68"/><stop offset="1" stop-color="#181b27"/></linearGradient>
    <filter id="glow" x="-30%" y="-30%" width="160%" height="160%"><feGaussianBlur stdDeviation="3" result="b"/><feMerge><feMergeNode in="b"/><feMergeNode in="SourceGraphic"/></feMerge></filter>
    <pattern id="stars" width="80" height="60" patternUnits="userSpaceOnUse"><circle cx="8" cy="10" r="1" fill="#fff" opacity=".7"/><circle cx="45" cy="22" r=".8" fill="#9fd8ff" opacity=".7"/><circle cx="71" cy="50" r="1.1" fill="#f0d18a" opacity=".5"/></pattern>
  </defs>
  <rect width="1000" height="360" fill="url(#bg)"/>
  <rect width="1000" height="360" fill="url(#neb)"/>
  <rect width="1000" height="360" fill="url(#stars)" opacity=".7"/>
  <path d="M120 235 L220 190 L325 230 L295 296 L145 300Z" fill="url(#stone)" stroke="#b98a3a" stroke-width="3" opacity=".92"/>
  <path d="M735 72 L855 55 L945 92 L910 154 L770 158Z" fill="url(#stone)" stroke="#b98a3a" stroke-width="3" opacity=".85"/>
  <g stroke="#4b3114" stroke-width="8" opacity=".8"><path d="M38 245 C176 190 289 220 405 170" fill="none"/><path d="M607 175 C731 120 850 155 965 92" fill="none"/></g>
  <g stroke="#a87931" stroke-width="2" stroke-dasharray="9 11" opacity=".8"><path d="M38 245 C176 190 289 220 405 170" fill="none"/><path d="M607 175 C731 120 850 155 965 92" fill="none"/></g>
  <rect x="32" y="28" width="936" height="304" rx="26" fill="none" stroke="url(#gold)" stroke-width="7"/>
  <rect x="48" y="44" width="904" height="272" rx="18" fill="none" stroke="#111018" stroke-width="4" opacity=".86"/>
  <path d="M185 106 H815 L866 180 L815 254 H185 L134 180 Z" fill="#0c1424" opacity=".92" stroke="url(#gold)" stroke-width="6"/>
  <path d="M215 130 H785 L820 180 L785 230 H215 L180 180 Z" fill="#151c2f" stroke="#60431a" stroke-width="2" opacity=".96"/>
  <circle cx="500" cy="66" r="17" fill="#55d7ff" filter="url(#glow)"/>
  <path d="M468 66h-58 M532 66h58 M500 35v-25 M500 97v25" stroke="url(#gold)" stroke-width="4" opacity=".82"/>
  <text x="500" y="198" text-anchor="middle" font-family="Cinzel, Georgia, serif" font-size="56" font-weight="700" fill="#ffe7a3" stroke="#533714" stroke-width="2" paint-order="stroke" letter-spacing="1.5">Explore the City</text>
  <text x="500" y="275" text-anchor="middle" font-family="Cinzel, Georgia, serif" font-size="13" fill="#d7a94b" letter-spacing="5" opacity=".85">CITY GATE</text>
  <g fill="#ffc96f" opacity=".75"><rect x="210" y="84" width="8" height="17" rx="4"/><rect x="255" y="73" width="7" height="14" rx="3"/><rect x="710" y="84" width="8" height="17" rx="4"/><rect x="750" y="75" width="7" height="14" rx="3"/></g>
</svg>
